<svg xmlns="http://www.w3.org/2000/svg" width="118.095" height="50" xmlns:xlink="http://www.w3.org/1999/xlink"><defs><path id="a" d="M-1441-1475.3h3000v3000h-3000z"/></defs><clipPath id="b"><use xlink:href="#a" overflow="visible"/></clipPath><path fill="#FAAD1E" d="M23.72 45.2c.12-.08.24-.18.37-.27-.14-.1-.27-.2-.4-.3-.33-.25-.66-.5-1-.77-.02-.02-.04-.04-.07-.06-.02.02-.04.03-.07.04-.4.16-.78.33-1.16.5-.2.08-.38.16-.57.24-.1.05-.23.1-.35.14 0 0 0 0 .02.02.23.3.46.6.68.9.12.14.23.3.34.43.1.14.22.3.33.42.02 0 .03.02.04.03 0 0 .02-.02.03-.02.15-.1.3-.2.44-.3.15-.1.3-.22.45-.33.3-.2.6-.43.9-.66M13.1 42.28c.35-.05.73-.1 1.1-.15.02 0 .03 0 .05 0-.05-.12-.1-.23-.15-.34-.08-.2-.15-.4-.23-.58-.15-.4-.3-.78-.47-1.17 0-.04-.02-.07-.03-.1-.03 0-.06 0-.1 0-.4-.06-.83-.1-1.24-.17-.17-.02-.33-.04-.5-.06.03.15.05.3.07.46.05.38.1.75.17 1.1.03.2.06.37.1.55.02.18.04.36.08.53 0 .02 0 .03 0 .05.03 0 .04 0 .06 0 .2 0 .36-.03.54-.05.18-.03.36-.05.55-.07M34.24 43c-.12-.02-.25-.03-.37-.05-.2-.03-.4-.06-.6-.1-.32-.05-.64-.1-.95-.15-.2.26-.37.52-.55.77-.13.17-.25.33-.37.5-.07.1-.15.2-.22.28 0 0 .03 0 .04.02.35.15.7.28 1.04.42.17.06.34.12.5.2.18.05.35.13.5.18.03 0 .05 0 .07.02 0-.02 0-.03.02-.05.08-.16.15-.32.22-.5.07-.15.14-.32.22-.5.13-.33.3-.67.43-1.03 0 0 0-.02 0-.03M38.13 41.85c.03-.18.05-.36.08-.54.07-.36.14-.73.2-1.1 0-.16.02-.3.04-.46-.16.02-.32.04-.48.06-.42.05-.83.1-1.26.16-.02 0-.05 0-.08 0 0 .03-.02.06-.03.08-.16.4-.32.8-.47 1.18-.08.2-.15.38-.23.57-.05.1-.1.22-.15.34 0 0 .02 0 .03 0 .38.06.75.1 1.1.15.2 0 .38.04.56.06.18.02.36.05.53.06.02 0 .04 0 .06 0 0 0 0-.03 0-.05.04-.17.07-.35.1-.52M38.65 37.84c.02-.25.04-.52.06-.78-.16.06-.33.12-.5.18-.2.06-.43.12-.64.2-.04 0-.07 0-.1.02-.02.03-.03.07-.04.1-.06.22-.12.43-.2.64-.05.18-.1.35-.17.52.27-.02.52-.04.78-.06.2-.02.4-.03.6-.05.05 0 .1 0 .15 0 0-.06 0-.1.02-.15.02-.2.03-.4.05-.6M17.74 44.7c.34-.15.7-.28 1.04-.43 0 0 .02 0 .03 0-.07-.1-.15-.2-.22-.3-.13-.17-.25-.34-.37-.5-.17-.26-.36-.52-.54-.78-.32.04-.63.1-.94.14-.2.04-.4.07-.6.1-.13 0-.25.03-.36.04 0 0 0 .03 0 .04.16.36.3.7.46 1.04.07.17.14.33.2.5.08.17.15.33.23.5 0 0 .02.02.02.04.02 0 .04 0 .05-.02.17-.05.34-.12.5-.2.18-.05.35-.12.52-.2M29.5 44.7c-.1-.03-.22-.07-.33-.12-.2-.08-.38-.16-.57-.24-.38-.17-.77-.33-1.16-.5-.03-.02-.06-.03-.1-.04 0 .02-.04.04-.06.06-.34.26-.67.52-1 .77-.13.1-.26.2-.4.3.14.1.26.2.37.28.3.24.62.45.9.67.16.1.3.22.46.33s.3.2.45.3c0 .02.03.03.04.03 0 0 0-.02.02-.03.12-.14.23-.28.34-.43.1-.14.22-.28.33-.43.22-.3.45-.58.68-.9 0 0 .02 0 .02-.03M38.83 34.77c-.25.13-.5.26-.75.4-.07.27-.14.55-.2.82.18-.07.37-.12.56-.18.12-.03.23-.07.35-.1 0-.12 0-.24 0-.36 0-.2.02-.4.03-.6M12.13 36c-.07-.28-.14-.56-.2-.84-.26-.14-.52-.28-.77-.4 0 .2.02.4.03.6 0 .1 0 .23 0 .36.12.03.24.07.36.1.2.06.38.12.57.17M31.28 40.19c-.28.27-.56.55-.83.83.2.05.38.1.58.14.24.06.5.13.74.2.13-.23.26-.44.4-.66.1-.16.2-.33.3-.5-.4 0-.8 0-1.2-.02M14.83 38.08c-.27-.07-.55-.14-.82-.2.07.18.12.37.18.56.04.12.07.23.1.35.12 0 .24 0 .36 0 .2 0 .4.02.6.03-.14-.25-.27-.5-.4-.75M12.15 38.65c.26.02.53.04.8.06-.07-.16-.13-.33-.2-.5-.05-.2-.1-.43-.18-.64 0-.03-.02-.07-.03-.1-.03-.02-.07-.03-.1-.04-.2-.06-.43-.12-.64-.18-.17-.07-.35-.12-.52-.2.02.27.04.53.06.8.02.2.03.4.05.6 0 .04 0 .1 0 .14.05 0 .1 0 .15.02.2.02.4.03.6.05M22.93 41.43c-.27.08-.55.17-.82.25.15.13.3.27.45.4.1.1.18.17.27.25.1-.05.22-.1.33-.17.17-.1.35-.2.52-.28-.24-.15-.5-.3-.74-.45M27.87 41.68c-.27-.08-.54-.16-.82-.24-.24.14-.48.3-.72.43.17.1.35.2.52.3.1.04.2.1.32.16.1-.08.18-.16.26-.24.15-.15.3-.28.44-.42M16.53 41.72c.13-.03.27-.06.4-.1-.05-.08-.1-.17-.17-.26-.12-.18-.24-.37-.36-.55-.12-.18-.23-.37-.35-.56 0-.03-.03-.07-.05-.1-.04 0-.07 0-.1 0-.23 0-.45-.02-.67-.03-.2 0-.36-.02-.54-.03.07.25.16.5.24.74.07.2.13.4.2.58.07.2.14.37.2.56.2-.03.4-.07.6-.1.2-.04.4-.08.6-.12M30.83 42.8c.08-.1.15-.22.23-.34-.1-.02-.2-.04-.32-.06-.2-.05-.43-.1-.65-.14-.22-.05-.44-.1-.65-.16-.04 0-.07-.02-.1-.03-.04.03-.06.05-.1.08-.15.15-.3.3-.48.45-.14.1-.27.23-.4.35.23.1.46.23.7.34.18.08.36.17.54.26.2.08.37.16.55.24.12-.16.23-.32.35-.48.1-.17.22-.34.33-.5M20.82 46.66c-.12-.14-.25-.28-.37-.42-.25-.28-.5-.57-.75-.87-.08-.1-.15-.18-.22-.27-.1.04-.22.08-.33.12-.37.13-.73.24-1.1.36-.17.06-.35.12-.52.18-.16.05-.3.1-.47.14 0 .03.03.06.04.1.15.3.3.6.44.88.15.3.3.57.44.84.15.27.28.54.43.8.04.04.07.1.1.15.05-.03.1-.06.16-.1.25-.13.5-.3.76-.45.27-.16.54-.33.8-.5.3-.16.56-.35.85-.54.02-.02.05-.03.08-.05-.12-.12-.22-.24-.33-.37M37.36 43.27c-.18 0-.37-.02-.56-.03-.37-.03-.76-.05-1.14-.1-.12 0-.24 0-.35-.03-.04.12-.1.23-.14.33-.17.36-.35.7-.5 1.03-.1.17-.18.34-.27.5-.08.15-.15.3-.23.44.03 0 .06.02.1.03.3.1.62.23.93.32.3.1.6.2.9.28.3.1.58.2.86.25.06.02.12.04.18.05 0-.06.03-.1.05-.17.07-.28.13-.57.2-.87.08-.3.15-.62.22-.93.1-.32.14-.64.2-.98.02-.04.02-.07.03-.1-.16 0-.33 0-.5-.02M42.63 40.97c-.02-.3-.04-.63-.05-.95 0-.32-.05-.65-.08-1 0-.02 0-.05 0-.1-.16.06-.32.1-.5.13-.17.04-.35.08-.53.12-.37.08-.74.17-1.12.24-.27.06-.54.1-.82.15-.04.28-.1.55-.14.8-.08.4-.18.77-.26 1.14-.04.17-.08.35-.12.53-.03.16-.07.32-.1.48.02 0 .05 0 .1 0 .32.05.66.08.98.1.32 0 .64.03.94.04.3.02.6.04.9.04.28 0 .56 0 .83 0 0-.26 0-.53 0-.82 0-.3-.03-.6-.05-.9M6.72 37.36c.02-.18.03-.37.04-.56.03-.37.05-.76.1-1.14 0-.12 0-.24.02-.36-.1-.04-.2-.1-.3-.14-.37-.17-.7-.35-1.04-.52-.17-.08-.34-.17-.5-.25-.15-.08-.3-.15-.43-.24 0 .03 0 .07-.03.1-.1.32-.22.63-.32.94-.1.3-.2.6-.28.9-.1.3-.2.58-.25.86-.02.06-.04.12-.05.18.06.02.1.03.17.05.28.07.57.13.87.2.3.08.62.15.93.23.32.08.64.13.98.2.04 0 .07.02.1.02 0-.16 0-.32.02-.5M13.9 46.03c.3-.1.6-.18.9-.28.3-.1.62-.2.94-.32.03 0 .06-.02.1-.03-.1-.14-.16-.3-.24-.44-.08-.16-.16-.33-.25-.5-.17-.33-.35-.67-.5-1.02-.06-.1-.1-.23-.16-.34-.14.02-.26.03-.38.04-.4.04-.77.06-1.14.08-.2.02-.38.03-.56.04-.17 0-.33.02-.5.02.02.04.02.07.03.1.07.33.13.66.2.97.08.32.15.63.22.93.08.3.14.6.22.86 0 .07.03.13.04.2.07-.02.13-.04.2-.05.28-.08.56-.18.86-.27M10.95 42.02c-.04-.2-.08-.37-.12-.55-.08-.37-.17-.74-.24-1.12-.06-.27-.1-.54-.15-.82-.28-.04-.55-.1-.8-.14-.4-.08-.77-.17-1.14-.25-.17-.05-.35-.08-.53-.13-.16-.03-.32-.07-.48-.1 0 .02 0 .06-.02.1-.02.33-.06.66-.07.98 0 .32-.03.64-.04.95-.02.3-.04.6-.04.9 0 .28 0 .55 0 .82.26 0 .54 0 .82 0 .3 0 .6-.03.9-.04.3-.02.62-.04.94-.05.32-.02.65-.05 1-.08.02 0 .06 0 .1 0-.05-.16-.1-.32-.13-.48M32.02 47.72c.14-.27.3-.55.44-.84.15-.28.3-.58.44-.9 0-.02.03-.05.04-.07-.15-.04-.3-.1-.47-.14-.17-.06-.35-.1-.53-.17-.35-.13-.72-.25-1.1-.38-.1-.04-.22-.08-.33-.13-.07.1-.15.18-.22.28-.25.3-.5.58-.76.87-.12.14-.24.28-.36.42-.1.12-.22.24-.33.36.02.02.05.03.08.05.3.2.56.38.84.55.28.17.55.33.8.5.27.15.52.32.78.45.05.04.1.07.17.1.03-.06.06-.1.1-.17.14-.24.27-.5.42-.78M27.1 46.96c-.16-.1-.3-.2-.47-.3-.32-.2-.65-.4-.97-.62-.22-.15-.45-.3-.67-.47-.24.16-.46.3-.7.47-.3.22-.64.42-.95.62-.16.1-.32.2-.48.3-.13.1-.27.18-.4.26 0 .02.03.05.05.07.22.25.43.5.65.75.2.24.42.47.63.7.2.23.4.46.6.66.2.2.4.4.6.6.17-.2.37-.38.57-.6.2-.2.4-.42.6-.65.2-.22.42-.46.64-.7.23-.24.43-.5.65-.76.02-.03.04-.05.06-.08-.12-.08-.26-.17-.4-.26M35.72 38.8c.03-.12.07-.24.1-.35.06-.2.12-.4.17-.58-.28.07-.56.15-.85.2-.13.26-.27.52-.4.77.2 0 .4-.02.6-.02.12 0 .24-.02.37-.02M19.53 41.02c-.27-.28-.55-.56-.83-.85-.4 0-.8 0-1.18 0 .1.18.2.36.3.53.14.2.27.43.4.65.24-.06.5-.12.74-.2.2-.03.38-.08.57-.13M8.62 34.86c.18.07.38.13.57.2.23.08.47.17.72.25 0-.17-.03-.36-.04-.54 0-.22-.02-.44-.03-.67 0-.05 0-.08 0-.12-.04-.02-.07-.03-.1-.05-.2-.12-.38-.23-.57-.35-.18-.12-.37-.24-.55-.36-.1-.06-.18-.12-.27-.18-.03.14-.06.28-.08.4-.05.2-.1.4-.13.6-.03.2-.07.4-.1.6.2.08.38.15.56.22M25.57 43.73c.2-.17.4-.33.6-.5-.16-.1-.33-.16-.5-.24-.18-.12-.38-.23-.57-.33-.04-.02-.07-.04-.1-.05-.03 0-.06.03-.1.05-.2.1-.38.2-.58.3-.17.1-.33.18-.5.26.2.17.4.33.6.5.15.13.3.26.45.4.04.02.08.06.12.1.03-.04.07-.07.1-.1.16-.14.3-.26.47-.4M20.4 43.56c.17-.1.35-.17.53-.27.23-.12.47-.23.7-.35-.14-.12-.28-.24-.42-.36-.16-.16-.32-.3-.48-.46-.03-.02-.06-.05-.08-.07-.04 0-.07 0-.1.02-.22.05-.44.1-.65.16-.23.04-.45.08-.66.13-.1 0-.2.03-.32.05.08.12.15.24.23.35.1.17.22.34.33.5.12.17.23.33.35.5.2-.08.38-.16.56-.24M7.63 38.04c.17.04.35.06.53.1.17.02.35.04.54.07.36.07.73.14 1.1.2.16 0 .3.02.46.04-.02-.16-.04-.32-.06-.48-.05-.4-.1-.83-.16-1.25 0-.02 0-.05 0-.08-.03 0-.06-.02-.08-.02-.4-.16-.8-.32-1.18-.47-.2-.08-.38-.15-.57-.23-.1-.05-.22-.1-.34-.15 0 0 0 .02 0 .03-.06.38-.1.75-.15 1.12 0 .18-.04.36-.06.54-.02.18-.05.35-.06.53 0 .02 0 .04 0 .06 0 0 .03 0 .05 0M34.87 41.4c.06-.2.12-.4.2-.6.07-.23.16-.47.24-.72-.17.02-.36.03-.54.05-.22 0-.44 0-.67.02-.04 0-.08 0-.12 0-.02.04-.04.07-.05.1-.12.2-.23.38-.35.57-.12.18-.24.36-.36.55-.06.1-.12.18-.18.27.14.03.28.06.4.1.2.03.4.07.6.1.2.04.4.07.6.1.08-.18.15-.37.23-.55M41.3 38.23c.17-.03.35-.06.53-.08.18-.03.36-.06.53-.1.02 0 .03 0 .05 0 0-.02 0-.04 0-.06 0-.2-.03-.36-.05-.54-.03-.18-.05-.36-.07-.55-.05-.35-.1-.73-.15-1.1 0-.02 0-.03 0-.05-.12.05-.23.1-.34.15-.2.08-.4.15-.58.23-.4.15-.78.3-1.18.46-.03 0-.06.02-.1.03 0 .03 0 .06 0 .1-.05.4-.1.83-.16 1.24-.02.16-.04.33-.06.5.15-.03.3-.05.45-.07.38-.05.75-.1 1.12-.17" clip-path="url(#b)"/><path fill="#3AC0B7" d="M40.2 17.54c0 .4 0 .8-.02 1.18.3.28.57.56.84.83.05-.2.1-.38.15-.58.06-.24.12-.5.2-.73-.23-.13-.45-.26-.67-.4-.17-.1-.34-.2-.5-.3M37.87 14c.07.28.14.56.2.85.27.13.52.27.77.4 0-.2-.02-.4-.03-.6 0-.12 0-.24 0-.37-.12-.03-.24-.07-.36-.1-.2-.06-.38-.12-.57-.17M35.17 11.93c.27.06.55.13.82.2-.07-.2-.12-.38-.18-.57-.03-.12-.07-.23-.1-.35-.12 0-.24 0-.36 0-.2 0-.4-.02-.6-.03.14.25.27.5.4.76M41.35 31.78c-.06-.24-.13-.5-.2-.73-.03-.2-.08-.4-.13-.58-.28.27-.56.55-.85.83 0 .4 0 .8 0 1.18.18-.1.35-.2.52-.3.2-.14.43-.27.65-.4M42.33 27.18c-.05-.1-.1-.22-.17-.33-.1-.17-.2-.35-.28-.52-.15.24-.3.5-.45.74.08.27.17.55.25.82.13-.15.27-.3.4-.45.1-.1.17-.18.25-.27M43.32 19.5c-.17-.1-.34-.22-.5-.33-.12-.08-.24-.15-.36-.23-.02.1-.04.22-.06.32-.05.22-.1.43-.14.65-.05.22-.1.44-.16.65 0 .04-.02.08-.03.1.03.04.05.06.08.1.15.15.3.3.45.48.1.14.23.27.35.4.1-.23.23-.46.34-.7.08-.18.17-.36.26-.54.08-.2.16-.37.24-.55-.16-.12-.32-.23-.48-.35M42.09 22.57c-.15-.15-.28-.3-.42-.44-.08.27-.16.54-.24.8.14.26.3.5.43.74.1-.17.2-.35.3-.52.04-.1.1-.2.16-.32-.08-.1-.16-.18-.24-.26M26.28 4.8c-.12.1-.24.18-.37.27.15.1.27.2.4.3.33.26.67.52 1 .78.02 0 .04.03.07.05.02 0 .05-.02.07-.03.4-.17.78-.34 1.16-.5.2-.1.38-.17.57-.25.1-.04.23-.1.35-.13 0-.02-.02-.03-.02-.04-.23-.3-.46-.6-.7-.9-.1-.14-.2-.28-.32-.43-.1-.14-.22-.28-.33-.42-.02 0-.03-.02-.04-.03 0 0-.02.02-.03.03-.15.1-.3.2-.44.3-.15.1-.3.22-.45.33-.3.22-.6.43-.9.66M32.26 5.3c-.34.15-.7.28-1.04.43 0 0-.02 0-.03 0 .07.1.15.2.23.3.12.17.24.34.36.5.17.26.36.52.54.77.32-.05.63-.1.94-.14.2-.04.4-.07.6-.1.13 0 .25-.02.36-.04 0 0 0-.03 0-.04-.16-.36-.3-.7-.45-1.04-.1-.17-.16-.33-.23-.5s-.14-.33-.22-.5c0 0-.02-.02-.03-.04 0 0-.03 0-.05.02-.16.05-.33.12-.5.2-.17.06-.34.12-.5.2M46.2 22.4c.1-.15.2-.3.3-.44.02-.02.03-.03.04-.05-.02 0-.03 0-.04-.02-.14-.12-.28-.23-.43-.34-.14-.1-.28-.22-.43-.33-.3-.22-.58-.45-.9-.68 0 0-.02 0-.03-.02-.03.1-.07.22-.12.34-.08.18-.16.37-.24.56-.17.4-.33.77-.5 1.16-.02.03-.03.06-.04.1.02 0 .04.04.06.06.26.34.52.67.77 1 .1.13.2.26.3.4.1-.13.2-.25.28-.37.24-.3.46-.6.68-.9.1-.16.2-.3.3-.45M36.9 7.72c-.35.05-.72.1-1.1.15-.02 0-.03 0-.05 0 .05.12.1.23.15.34.08.2.16.4.23.58.15.4.3.78.47 1.18 0 .02.02.06.03.1.03 0 .06 0 .1 0 .4.05.83.1 1.24.16.17.02.33.04.5.06-.03-.15-.05-.3-.07-.46-.05-.38-.1-.75-.17-1.1-.03-.2-.06-.37-.08-.55-.03-.18-.06-.36-.1-.53 0-.02 0-.04 0-.05-.02 0-.04 0-.06 0-.18 0-.36.03-.54.05-.18.03-.36.05-.55.07M47.22 22.48c-.08.15-.17.28-.26.42-.1.16-.2.3-.3.47-.2.32-.4.65-.62.97-.16.22-.3.45-.47.67.16.24.3.46.47.68.2.33.42.66.62.97.1.16.2.32.3.48.1.14.17.27.25.4.04 0 .06-.03.1-.05.25-.22.5-.43.75-.65.24-.2.47-.42.7-.63.23-.2.46-.4.66-.6.2-.2.4-.4.6-.6-.2-.17-.4-.37-.6-.57-.2-.2-.42-.4-.65-.6-.23-.2-.46-.42-.7-.64-.24-.23-.5-.44-.76-.65-.03-.03-.05-.05-.08-.07M41.38 15.14c-.18-.07-.37-.13-.57-.2-.23-.08-.47-.17-.72-.25 0 .17.03.36.05.54 0 .22 0 .44.02.67 0 .05 0 .08 0 .12.03.02.07.04.1.05.2.12.38.23.57.35.18.12.37.24.55.36.1.06.18.12.27.18.03-.14.06-.28.08-.4.05-.2.1-.4.13-.6.03-.2.06-.4.1-.6-.2-.08-.38-.15-.57-.22M37.84 11.35c-.25-.02-.52-.04-.78-.06.06.16.12.33.18.5.06.2.12.43.18.64.02.04.03.07.04.1.03.02.07.03.1.04.2.06.43.12.64.2.17.05.35.1.52.17-.02-.26-.04-.52-.06-.78-.02-.2-.03-.4-.05-.6 0-.05 0-.1 0-.15-.06 0-.1 0-.15-.02-.2 0-.4-.03-.6-.05M33.47 8.28c-.13.03-.27.06-.4.1.05.08.1.17.17.26.12.18.24.37.37.55.12.18.23.37.35.56 0 .03.03.07.05.1.04 0 .07 0 .1 0 .23 0 .45.02.68.03.18 0 .36.02.54.03-.1-.25-.18-.5-.26-.74-.07-.2-.13-.4-.2-.58-.07-.2-.14-.37-.2-.56-.2.03-.4.07-.6.1-.2.04-.4.08-.6.12M27.07 8.57c.27-.08.55-.16.82-.24-.15-.14-.3-.28-.45-.4-.1-.1-.18-.18-.27-.26-.1.06-.22.1-.33.17-.17.1-.35.2-.52.3.24.13.5.28.74.43M46.07 28.48c.14-.1.3-.22.42-.33 0-.02.02-.03.03-.04 0 0-.02-.02-.03-.03-.1-.15-.2-.3-.3-.44-.1-.15-.22-.3-.33-.44-.2-.3-.43-.62-.66-.92-.08-.12-.18-.24-.27-.36-.1.12-.2.25-.3.4-.26.3-.5.65-.77.98-.02.02-.04.05-.06.07 0 .02.03.04.04.07.16.4.33.78.5 1.16.08.2.16.38.24.57.04.1.1.23.13.35.02 0 .03 0 .04-.02.3-.23.6-.46.9-.7.14-.1.3-.2.43-.32M43.27 12.64c0 .18-.02.37-.03.56-.03.37-.05.76-.1 1.15 0 .1 0 .23-.03.35.12.04.23.1.33.14.36.17.7.35 1.03.52.17.08.34.16.5.25.15.08.3.16.43.24 0-.03.02-.07.03-.1.1-.32.23-.63.32-.94.1-.3.2-.6.28-.9.1-.3.2-.58.25-.86.02-.06.04-.12.05-.17-.06-.02-.12-.04-.17-.05-.28-.1-.57-.15-.87-.22-.3-.07-.62-.15-.93-.22-.32-.08-.64-.14-.98-.2-.04 0-.07-.02-.1-.03 0 .16 0 .33-.02.5M29.18 3.34c.13.14.25.28.37.42.25.28.5.57.75.87.08.1.15.18.22.28.1-.04.22-.08.33-.12.37-.13.74-.24 1.1-.36.17-.06.35-.12.53-.18.15-.05.3-.1.46-.14 0-.03-.03-.06-.04-.1-.15-.3-.3-.6-.44-.88-.15-.3-.3-.57-.44-.84-.15-.27-.28-.54-.42-.8-.04-.04-.07-.1-.1-.15-.05.03-.1.06-.16.1-.25.13-.5.3-.76.45-.27.16-.53.33-.8.5-.3.16-.56.35-.85.54-.02.02-.05.04-.08.05.12.12.22.24.33.37M47.72 17.98c-.27-.14-.55-.3-.84-.44-.28-.15-.58-.3-.9-.44-.02 0-.05-.03-.08-.04-.04.16-.1.3-.14.47-.06.17-.12.35-.18.53-.12.36-.23.72-.36 1.1-.04.1-.1.22-.13.33.1.07.18.14.28.22.3.25.58.5.87.75.14.13.28.25.42.37.12.1.24.22.36.33.02-.03.03-.05.05-.08.2-.3.38-.57.54-.84.18-.28.34-.55.5-.8.16-.27.33-.52.46-.78.04-.06.07-.12.1-.17-.06-.03-.1-.06-.17-.1-.24-.14-.5-.27-.78-.42M36.1 3.97c-.3.1-.6.2-.9.28-.3.1-.62.2-.94.32-.03 0-.06.02-.1.03.1.15.16.3.23.44.08.16.16.33.25.5.17.33.34.67.5 1.03.06.1.1.22.16.33.14 0 .26-.03.38-.04.4-.04.77-.06 1.14-.08.2 0 .38-.03.56-.04.17 0 .33-.02.5-.02-.02-.04-.02-.07-.03-.1-.07-.33-.13-.66-.2-.97-.08-.32-.15-.63-.22-.92-.08-.3-.14-.6-.22-.87 0-.07-.03-.13-.05-.2-.06.02-.13.04-.2.06-.27.06-.55.16-.85.25M39.05 8c.04.17.08.35.12.53.08.37.17.74.24 1.13.06.26.1.54.15.8.28.05.55.1.8.15.4.1.77.18 1.14.26.17.04.35.08.53.12.16.03.32.07.48.1 0-.02 0-.05.02-.1.03-.32.06-.66.07-.98 0-.32.03-.64.04-.94.02-.3.04-.6.04-.9 0-.28 0-.56 0-.83-.26 0-.53 0-.82 0-.3 0-.6.03-.9.05-.3 0-.62.03-.94.04-.32.02-.65.05-1 .08-.02 0-.05 0-.1 0 .05.17.1.33.13.5M46.03 36.1c-.1-.3-.2-.6-.28-.9-.1-.3-.2-.62-.32-.94 0-.03-.02-.06-.03-.1-.14.1-.3.16-.44.24-.16.08-.33.16-.5.25-.33.17-.67.35-1.02.52-.1.05-.23.1-.34.14 0 .14.03.26.04.38.04.4.05.77.08 1.15.02.18.03.37.04.55 0 .17.02.33.02.5.03-.02.07-.02.1-.03.33-.07.66-.12.97-.2.32-.08.63-.15.92-.22.3-.08.6-.14.87-.22.07 0 .13-.03.2-.05-.02-.06-.04-.13-.05-.2-.08-.27-.18-.55-.27-.85M30.46 8.98c.28.28.56.56.84.84.4 0 .8 0 1.18 0-.1-.17-.2-.34-.3-.5-.14-.23-.27-.45-.4-.67-.24.06-.5.13-.74.2-.2.03-.38.08-.57.13M47.08 28.94c-.02-.03-.04-.06-.05-.1-.12.13-.24.24-.37.34-.14.13-.28.25-.42.37-.28.25-.57.5-.87.75-.1.08-.18.15-.27.22.04.1.08.22.12.33.13.37.24.73.36 1.1.06.17.12.35.18.52.05.16.1.3.14.47.03 0 .06-.03.1-.04.3-.15.6-.28.88-.44.3-.15.57-.3.84-.44.27-.15.54-.27.8-.42.04-.04.1-.07.15-.1-.03-.05-.06-.1-.1-.16-.13-.25-.3-.5-.45-.76-.16-.27-.33-.53-.5-.8-.16-.3-.35-.56-.54-.84M44.22 25c-.03-.03-.06-.07-.1-.1-.12-.16-.26-.3-.4-.47-.16-.2-.33-.4-.5-.6-.08.17-.16.33-.23.5-.12.18-.23.38-.33.58-.02.04-.04.07-.06.1.03.03.05.07.07.1.1.2.2.4.3.58.1.17.18.34.26.5.17-.2.33-.4.5-.6.13-.14.26-.3.4-.45.02-.04.05-.08.1-.12M41.38 34.86c.2-.07.37-.14.56-.2-.03-.2-.07-.4-.1-.6-.04-.2-.08-.4-.12-.6-.03-.12-.06-.26-.1-.4-.08.06-.17.12-.26.18-.18.12-.37.24-.55.36-.18.12-.37.23-.56.34-.03.02-.07.04-.1.06 0 .04 0 .07 0 .1 0 .23-.02.46-.03.67 0 .18-.02.36-.03.54.25-.07.5-.16.74-.24.2-.07.4-.13.58-.2M43.3 30.52c.17-.12.33-.23.5-.35-.08-.2-.16-.38-.24-.56-.1-.17-.18-.35-.27-.53-.12-.23-.23-.47-.35-.7-.12.14-.24.28-.36.43-.16.16-.3.32-.46.48-.02.03-.05.06-.08.08 0 .04.02.07.03.1.05.23.1.44.15.65.05.23.1.45.14.66 0 .1.03.2.05.32.12-.08.24-.15.35-.23.17-.1.34-.22.5-.33M45.05 16.65c-.16-.08-.32-.15-.5-.22-.15-.07-.32-.14-.5-.22-.33-.13-.67-.28-1.03-.43 0 0-.02 0-.03 0-.02.12-.03.24-.05.37-.03.2-.06.4-.1.6-.04.3-.1.63-.14.94.26.2.52.37.77.56.17.12.34.24.5.36.1.07.2.15.28.22 0 0 .02-.02.02-.04.15-.35.28-.7.42-1.04.06-.17.12-.34.2-.5.06-.18.13-.34.18-.5 0-.03.02-.05.02-.06-.02 0-.03-.02-.05-.03M44.56 33.57c.17-.07.33-.14.5-.22 0 0 .02-.02.04-.02 0-.02 0-.04-.02-.06-.05-.16-.12-.33-.2-.5-.06-.16-.12-.34-.2-.5-.13-.35-.26-.7-.4-1.05 0 0-.02-.02-.02-.03-.1.07-.2.15-.3.23-.16.12-.33.24-.5.36-.25.17-.5.36-.76.54.04.32.1.63.14.94.04.2.07.4.1.6 0 .13.03.25.04.36 0 0 .03 0 .04 0 .36-.16.7-.3 1.04-.46.17-.07.34-.14.5-.2M42.38 11.97c-.18-.04-.36-.07-.54-.1-.17-.02-.35-.05-.54-.08-.36-.07-.73-.14-1.1-.2-.16 0-.3-.02-.46-.04.02.16.04.32.06.48.05.42.1.83.16 1.26 0 .02 0 .05 0 .08.03 0 .06.02.08.03.4.16.8.32 1.18.47.2.08.38.16.57.23.1.05.22.1.34.15 0 0 0-.02 0-.03.06-.38.1-.75.15-1.1 0-.2.04-.38.06-.56.02-.18.05-.35.06-.53 0-.02 0-.04 0-.05 0 0-.03 0-.05 0M29.6 6.44c-.17.1-.35.18-.53.27-.23.12-.47.23-.7.35.14.12.28.24.43.36.16.16.32.3.48.46.03.03.06.05.1.08.02 0 .06-.02.1-.03.2-.05.42-.1.63-.15.23-.05.45-.1.66-.14.1 0 .2-.03.32-.05-.08-.12-.15-.23-.23-.35-.1-.17-.22-.34-.33-.5-.12-.17-.23-.33-.35-.5-.2.08-.38.16-.56.24" clip-path="url(#b)"/><path fill="#FF5A5F" d="M18.72 9.82c.28-.3.56-.57.83-.85-.2-.04-.38-.1-.58-.14-.24-.06-.5-.12-.73-.2-.13.23-.26.45-.4.67-.1.16-.2.34-.3.5.4 0 .8 0 1.18.02M3.8 27.6c-.1.15-.2.3-.3.45-.02 0-.03.03-.03.04 0 0 .02 0 .03.02.14.12.28.23.43.34.14.1.28.22.43.33.3.22.58.45.9.68 0 0 0 .02.03.02.03-.1.07-.22.12-.33.08-.2.16-.38.24-.57.17-.38.33-.77.5-1.16.02-.03.03-.06.04-.1-.02 0-.04-.04-.06-.06-.26-.34-.5-.67-.77-1-.1-.13-.2-.26-.3-.4-.1.13-.18.25-.28.37-.24.3-.45.6-.67.9-.1.16-.22.3-.32.46M9.8 32.46c0-.4 0-.78.02-1.18-.3-.28-.57-.56-.84-.83-.05.2-.1.38-.15.58-.06.25-.12.5-.2.74.23.12.45.25.66.4.16.1.34.2.5.3M7.9 27.43c.15.15.28.3.42.44.08-.27.16-.54.24-.8-.14-.26-.3-.5-.43-.74-.1.18-.2.35-.3.53-.04.1-.1.2-.16.3.08.1.16.2.25.27M7.67 22.82c.06.1.1.22.17.33.1.17.2.35.3.52.13-.24.28-.5.43-.74-.08-.27-.16-.55-.25-.82-.13.15-.27.3-.4.45-.1.1-.17.18-.25.27M8.65 18.22c.06.24.12.5.18.74.05.2.1.38.15.58.28-.28.56-.56.85-.84 0-.4 0-.8 0-1.18-.18.1-.36.2-.52.3-.2.14-.43.27-.65.4M15.76 7c.12.02.25.03.37.05.2.03.4.06.62.1.3.04.62.1.93.14.2-.26.37-.52.56-.77.12-.17.24-.33.36-.5.07-.1.15-.2.22-.28 0 0-.03 0-.04-.02-.35-.15-.7-.28-1.04-.42-.18-.06-.34-.12-.5-.2-.18-.06-.35-.12-.52-.18 0 0-.03 0-.05-.02 0 .02 0 .03-.02.05-.08.16-.15.32-.22.5-.07.15-.14.32-.22.5-.13.33-.3.67-.43 1.03 0 0 0 .02 0 .03M20.5 5.3c.1.03.22.07.33.12.2.08.38.16.57.24.38.17.77.33 1.16.5.03.02.06.03.1.04 0-.02.04-.04.06-.06.34-.26.67-.5 1-.77.13-.1.26-.2.4-.3-.13-.1-.26-.18-.37-.28-.3-.24-.62-.45-.9-.67-.16-.1-.3-.22-.46-.32s-.3-.2-.44-.3c-.02-.02-.03-.03-.05-.03 0 0 0 .02-.02.04-.12.14-.23.28-.34.43-.1.14-.22.28-.33.43-.22.3-.45.58-.68.9 0 0-.02.02-.02.03M11.87 8.15c-.03.18-.05.36-.08.55-.07.36-.14.73-.2 1.1 0 .16-.02.3-.04.46.16-.02.32-.04.48-.06.42-.05.83-.1 1.26-.16.02 0 .05 0 .08 0 0-.03.02-.06.03-.08.16-.4.32-.8.47-1.18.08-.2.16-.38.23-.57.05-.1.1-.22.15-.33 0 0-.02 0-.03 0-.38-.07-.75-.1-1.1-.16-.2 0-.38-.04-.56-.06-.18-.02-.35-.05-.53-.06-.02 0-.04 0-.05 0 0 0 0 .03 0 .05-.05.17-.08.35-.1.52M11.35 12.15c-.02.26-.04.53-.06.8.16-.07.33-.13.5-.2.2-.05.43-.1.64-.18.04 0 .07-.02.1-.03.02-.03.03-.06.04-.1.06-.2.12-.43.2-.64.05-.17.1-.35.17-.52-.26.02-.52.04-.78.06-.2.02-.4.03-.6.05-.05 0-.1 0-.15 0 0 .06 0 .1-.02.15-.02.2-.03.4-.05.6M22.13 8.32c.27.08.54.16.8.25.26-.15.5-.3.74-.44-.17-.1-.35-.2-.52-.28-.1-.06-.2-.12-.32-.18-.1.08-.17.17-.26.25-.15.13-.3.26-.44.4M19.17 7.2c-.07.1-.15.22-.23.34.1.02.2.04.32.07.22.05.43.1.65.14.22.05.44.1.65.16.04 0 .07.02.1.03.04-.03.06-.05.1-.08.15-.15.3-.3.48-.45.14-.1.27-.23.4-.35-.23-.1-.46-.23-.7-.34-.18-.08-.36-.17-.54-.26-.2-.08-.37-.16-.55-.24-.12.16-.23.32-.35.48-.1.17-.22.34-.33.5M11.17 15.24c.25-.14.5-.27.76-.4.06-.28.13-.56.2-.83-.2.07-.38.12-.57.18-.12.04-.23.07-.35.1 0 .12 0 .24 0 .36 0 .2-.02.4-.03.6M7.38 9.04c0 .3.03.62.04.94.02.32.05.65.08 1 0 .02 0 .06 0 .1.17-.05.32-.1.5-.13.17-.04.35-.08.53-.12.37-.08.74-.17 1.13-.24.26-.06.53-.1.8-.15.05-.28.1-.55.15-.8.08-.4.17-.77.26-1.14.04-.17.08-.35.12-.53.03-.16.07-.32.1-.48-.02 0-.05 0-.1-.02-.33-.02-.66-.06-.98-.07-.32 0-.64-.02-.95-.04-.3 0-.6-.04-.9-.04-.27 0-.55 0-.82 0 0 .26 0 .54 0 .82 0 .3.03.6.04.9M22.9 3.04c.16.1.3.2.47.3.32.2.65.4.97.62.22.16.45.3.67.47.24-.15.46-.3.68-.47.33-.2.66-.4.97-.62.16-.1.32-.2.48-.3.13-.1.27-.17.4-.25 0-.04-.03-.06-.05-.1-.22-.25-.43-.5-.65-.74-.2-.25-.42-.48-.63-.7-.2-.24-.4-.47-.6-.67-.2-.2-.4-.4-.6-.6-.17.2-.37.4-.57.6-.2.2-.4.42-.6.65-.2.23-.42.46-.64.7-.23.24-.44.5-.65.76-.03.03-.05.06-.07.08.14.08.28.17.42.26M17.98 2.28c-.14.27-.3.55-.44.84-.15.28-.3.58-.44.9 0 .02-.03.05-.04.08.15.04.3.1.47.14.17.06.35.12.53.17.35.13.72.25 1.1.38.1.04.22.1.33.13.07-.1.15-.18.22-.28.25-.3.5-.58.75-.87.13-.14.25-.28.37-.42.1-.12.22-.24.33-.36-.03-.02-.05-.04-.08-.05-.3-.2-.57-.38-.84-.55-.28-.16-.55-.33-.8-.5-.27-.15-.52-.32-.78-.45-.06-.04-.12-.07-.17-.1-.03.06-.06.1-.1.17-.14.24-.27.5-.42.78M2.78 27.52c.08-.14.17-.28.26-.42.1-.16.2-.3.3-.47.2-.32.4-.65.62-.97.15-.22.3-.45.47-.67-.16-.24-.3-.46-.47-.68-.2-.33-.4-.66-.62-.97-.1-.16-.2-.32-.3-.48-.1-.13-.18-.27-.25-.4-.04 0-.06.03-.1.05-.25.22-.5.43-.74.65-.25.2-.48.43-.7.63-.24.2-.47.4-.67.6-.2.2-.4.4-.6.6.2.17.4.37.6.57.2.2.42.4.65.6.23.2.46.42.7.64.24.23.5.44.76.65.03.03.06.05.08.07M2.92 21.07c.02.02.04.05.05.08.12-.1.24-.22.37-.33.14-.12.28-.25.42-.37.28-.24.57-.5.87-.75.1-.08.18-.15.27-.22-.04-.1-.08-.22-.12-.33-.13-.37-.24-.73-.36-1.1-.06-.17-.12-.35-.18-.52-.05-.16-.1-.3-.14-.47-.03.02-.06.03-.1.04-.3.15-.6.3-.88.44-.3.15-.57.3-.84.44-.27.15-.54.28-.8.43-.04.04-.1.07-.15.1.03.05.06.1.1.16.13.25.3.5.45.77.16.26.33.53.5.8.16.28.35.55.54.84M2.28 32.02c.27.14.55.3.84.44.28.16.58.3.9.44.02 0 .05.03.08.04.04-.16.1-.3.14-.47.06-.17.12-.35.17-.53.13-.36.25-.72.38-1.1.04-.1.08-.22.13-.33-.1-.07-.18-.15-.28-.22-.3-.25-.58-.5-.87-.76-.14-.12-.28-.24-.42-.36-.12-.1-.24-.22-.36-.33-.02.02-.04.05-.05.08-.2.3-.38.56-.55.84-.17.28-.33.55-.5.8-.15.27-.32.52-.45.78-.04.06-.07.1-.1.17.05.03.1.06.17.1.24.15.5.27.78.42M3.97 13.9c.1.3.2.6.28.9.1.3.2.62.32.94 0 .03.02.07.03.1.14-.1.3-.16.44-.23.16-.08.33-.16.5-.25.34-.16.67-.34 1.03-.5.1-.06.22-.1.33-.16 0-.13-.03-.25-.04-.37-.04-.4-.05-.78-.08-1.15 0-.2-.03-.38-.04-.56 0-.16-.02-.33-.02-.5-.03.02-.07.02-.1.03-.33.07-.66.13-.97.2-.32.08-.62.15-.92.22-.3.08-.6.14-.87.22-.07 0-.13.03-.2.05.02.06.04.12.06.2.06.27.16.55.25.85M12.64 6.73c.18 0 .37.02.56.03.37.03.76.05 1.15.1.1 0 .23 0 .35.03.04-.12.1-.23.14-.33.17-.36.35-.7.52-1.03.08-.17.16-.34.25-.5.08-.15.15-.3.24-.43-.04 0-.07 0-.1-.02-.32-.12-.63-.23-.94-.33-.3-.1-.6-.2-.9-.28-.3-.1-.58-.18-.86-.25-.06-.02-.12-.04-.18-.05 0 .06-.03.12-.05.17-.07.28-.13.57-.2.87-.08.3-.15.62-.23.93-.07.3-.13.64-.2.98 0 .04 0 .07-.02.1.16 0 .32 0 .5.03M6.7 19.48c-.17.12-.33.23-.5.35.08.2.16.38.24.56.1.17.18.35.27.53.12.23.23.47.35.7.1-.14.24-.28.36-.42.16-.16.3-.32.46-.48.02-.03.05-.06.07-.08 0-.04 0-.07-.02-.1-.05-.23-.1-.44-.15-.65-.05-.23-.1-.45-.14-.66 0-.1-.03-.2-.05-.32-.12.08-.24.16-.35.23-.17.1-.34.22-.5.33M6.68 30.5c.17.1.34.22.5.33.12.08.24.15.36.23.02-.1.04-.2.06-.32.05-.2.1-.43.14-.65.05-.22.1-.43.16-.65 0-.04.02-.07.03-.1-.03-.03-.05-.06-.08-.1-.15-.15-.3-.3-.45-.48-.1-.13-.23-.27-.35-.4-.1.23-.23.47-.34.7-.08.18-.17.36-.26.54-.08.2-.16.37-.24.56.16.1.32.22.48.34M14.28 11.2c-.03.12-.07.24-.1.36-.06.2-.12.38-.17.57.28-.07.56-.14.85-.2.13-.26.27-.52.4-.77-.2 0-.4.02-.6.03-.12 0-.24 0-.37 0M5.78 25c.04.03.07.07.1.1.13.16.26.3.4.47.16.2.33.4.5.6.08-.16.16-.32.23-.5.12-.18.23-.38.33-.57.02-.03.04-.07.06-.1-.03-.03-.05-.07-.07-.1-.1-.2-.2-.4-.3-.58-.1-.17-.17-.33-.26-.5-.17.2-.33.4-.5.6-.13.15-.26.3-.4.45-.02.04-.05.08-.1.12M8.62 15.14c-.2.07-.37.14-.56.2.04.2.07.4.1.6.04.2.08.4.12.6.03.12.06.26.1.4.08-.06.17-.12.26-.18.18-.12.37-.24.55-.37.18-.12.37-.23.56-.34.03-.02.07-.04.1-.06 0-.04 0-.07 0-.1 0-.23.02-.45.03-.67 0-.2.02-.36.03-.54-.25.07-.5.16-.75.24-.18.07-.37.13-.56.2M3.93 21.52c-.14.1-.3.22-.42.33 0 0-.02.03-.03.04 0 0 .02.02.03.03.1.15.2.3.3.44.1.15.22.3.33.44.22.3.43.62.66.92.08.12.18.24.27.36.1-.12.2-.25.3-.38.26-.33.52-.67.78-1 0-.03.03-.05.05-.07 0-.02-.02-.05-.04-.07-.16-.4-.33-.78-.5-1.16-.08-.2-.16-.38-.24-.57-.04-.12-.1-.23-.13-.35-.02 0-.03 0-.04.02-.3.23-.6.46-.9.68-.14.12-.3.23-.43.34M4.95 33.35c.16.08.32.15.5.22.15.07.32.15.5.22.33.13.67.3 1.03.43 0 0 .02 0 .03 0 .02-.1.03-.24.05-.36.03-.2.06-.4.1-.6.05-.32.1-.63.15-.95-.26-.18-.52-.37-.77-.55-.17-.13-.33-.25-.5-.37-.1-.07-.2-.15-.28-.22 0 0 0 .03-.02.04-.15.35-.28.7-.42 1.05-.05.17-.12.34-.2.5-.06.17-.12.34-.18.5 0 .03 0 .04-.02.06.02 0 .03 0 .05.02M8.7 11.77c-.17.03-.35.06-.53.1s-.36.04-.53.08c-.02 0-.03 0-.05 0 0 .03 0 .04 0 .06 0 .2.03.37.05.54.02.2.05.37.07.55.05.35.1.73.15 1.1 0 .02 0 .03 0 .05.12-.05.22-.1.34-.15.2-.08.4-.15.58-.23.4-.15.78-.3 1.17-.46.04 0 .07 0 .1-.02 0-.04 0-.07 0-.1.06-.42.1-.84.16-1.25.04-.16.06-.32.08-.48-.15 0-.3.03-.46.05-.38.05-.74.1-1.1.17M15.14 8.62c-.07.18-.13.37-.2.57-.08.23-.17.48-.25.72.17 0 .36-.03.54-.04.22 0 .44-.02.67-.03.04 0 .08 0 .12 0 .02-.03.04-.07.05-.1.12-.2.23-.38.35-.57.12-.18.24-.36.36-.55.06-.1.12-.18.18-.27-.14-.03-.28-.06-.4-.08-.2-.05-.4-.1-.6-.13-.2-.03-.4-.06-.6-.1-.08.2-.15.38-.22.57M24.43 6.27c-.2.17-.4.34-.6.5.16.1.33.17.5.24.18.12.38.23.57.33.04.02.07.04.1.06.03-.03.06-.05.1-.07.2-.1.4-.2.58-.3.17-.1.33-.17.5-.25-.2-.17-.4-.34-.6-.5-.15-.14-.3-.27-.45-.4-.04-.03-.08-.06-.12-.1-.03.04-.07.07-.1.1-.16.13-.3.26-.47.4M5.44 16.43c-.17.08-.33.14-.5.22 0 0-.02.02-.04.03 0 0 0 .03.02.05.05.16.12.33.2.5.06.17.12.34.2.5.13.35.26.7.4 1.05 0 0 .02.02.02.03.1-.07.2-.14.3-.22.16-.12.33-.25.5-.37.25-.17.5-.36.76-.54-.05-.32-.1-.63-.15-.94-.03-.2-.06-.4-.1-.6 0-.13-.02-.25-.03-.36-.02 0-.03 0-.05 0-.35.16-.7.3-1.03.45-.17.1-.33.16-.5.23" clip-path="url(#b)"/><path fill="#333" d="M56.5 9.66h2.34v22.68H56.5zM69.42 14.52c0 .9-.73 1.6-1.6 1.6-.9 0-1.63-.7-1.63-1.6 0-.9.72-1.65 1.6-1.65.9 0 1.62.74 1.62 1.65m-.44 17.82h-2.35V20.1h2.35v12.24zM79 21.76h.07c.73-1.3 2.2-2.02 3.68-2.02 3.45 0 4.34 2.33 4.34 5.3v7.3h-2.37v-7c0-2.1-.28-3.5-2.7-3.5-3.02 0-3.02 2.66-3.02 4.88v5.62h-2.34V20.1H79v1.66zM96.75 24.7l4.6-4.6h3.1l-5.22 5.08 5.75 7.16h-3.06l-4.36-5.57-.8.8v4.77H94.4V9.66h2.35zM112.74 22.1h.08c.57-1.44 1.77-2.36 3.34-2.36.68 0 1.36.24 1.94.6l-1.08 2.15c-.4-.38-.88-.5-1.43-.5-2.55 0-2.86 2.34-2.86 4.33v6h-2.35V20.12h2.34v2zM56.5 35.08h2.53v.5h-2v1.46h1.94v.5h-1.93v1.92h2v.5h-2.55zM62.55 35.08h.92c.73 0 1.32.1 1.9.6.56.47.8 1.13.8 1.85 0 .7-.25 1.34-.8 1.82-.57.52-1.15.62-1.92.62h-.9v-4.9zm.94 4.38c.58 0 1.08-.08 1.53-.5.4-.38.6-.9.6-1.43 0-.56-.2-1.1-.63-1.47-.45-.4-.94-.47-1.52-.47h-.4v3.86h.4zM70.06 38c0 .35 0 .77.2 1.08.23.3.64.47 1 .47.35 0 .73-.16.96-.44.26-.3.24-.73.24-1.1v-2.92H73v3.06c0 .53-.04.95-.43 1.36-.33.36-.82.55-1.3.55-.47 0-.94-.17-1.27-.5-.43-.4-.48-.85-.48-1.4v-3.06h.54V38zM80.28 36.15c-.38-.4-.92-.64-1.48-.64-1.1 0-1.97.95-1.97 2.03 0 1.07.88 2.02 1.98 2.02.56 0 1.1-.26 1.48-.65v.67c-.42.3-.93.48-1.45.48-1.38 0-2.55-1.12-2.55-2.5 0-1.4 1.15-2.55 2.55-2.55.54 0 1.02.15 1.45.48v.67zM84.53 38.58l-.6 1.4h-.6l2.27-5.13 2.2 5.12h-.6l-.6-1.4h-2.07zm1.05-2.46l-.83 1.96h1.65l-.82-1.96zM91.7 39.97h-.55V35.6h-1.18v-.52h2.92v.5h-1.2zM96.05 35.08h.54v4.9h-.55zM105.02 37.53c0 1.4-1.15 2.52-2.54 2.52-1.4 0-2.55-1.1-2.55-2.52 0-1.4 1.15-2.53 2.55-2.53s2.54 1.13 2.54 2.53m-4.54 0c0 1.1.9 2.02 2 2.02s2-.92 2-2.02-.88-2.02-2-2.02c-1.13 0-2 .92-2 2.03" clip-path="url(#b)"/><path fill="#333" d="M108.4 34.88l3.8 4v-3.8h.54v5.1l-3.8-3.98v3.77h-.55z" clip-path="url(#b)"/></svg>