<svg width="170" height="42" xmlns="http://www.w3.org/2000/svg" xmlns:xlink="http://www.w3.org/1999/xlink"><defs><path id="a" d="M.529.475h23.403v40.737H.53z"/><path id="c" d="M.568.475h23.908v40.738H.568z"/><path id="e" d="M.52.475h23.116v40.737H.521z"/><path id="g" d="M.466.547H22.57v39.095H.466z"/></defs><g fill="none" fill-rule="evenodd"><path fill="#F05A33" d="M0 1.57v39.097h16.268v-7.825h-6.152V1.571z"/><g transform="translate(17.895 .274)"><mask id="b" fill="#fff"><use xlink:href="#a"/></mask><path d="M13.816 11.342c0-1.82-.1-2.982-.3-3.49-.2-.507-.613-.76-1.238-.76-.528 0-.933.205-1.213.615-.28.41-.42 1.622-.42 3.635v18.255c0 2.27.091 3.671.275 4.202.185.532.613.797 1.287.797.689 0 1.129-.306 1.32-.917.193-.612.29-2.07.29-4.371V11.342zm10.116 12.847c0 3.928-.092 6.71-.276 8.342a9.373 9.373 0 0 1-1.73 4.48c-.97 1.353-2.279 2.39-3.929 3.115-1.65.725-3.572 1.086-5.766 1.086-2.083 0-3.954-.342-5.61-1.025-1.66-.684-2.993-1.711-4.002-3.08C1.61 35.74 1.009 34.25.817 32.64c-.192-1.61-.288-4.427-.288-8.45V17.5c0-3.928.092-6.708.276-8.343a9.36 9.36 0 0 1 1.73-4.48c.969-1.351 2.279-2.39 3.929-3.115C8.114.837 10.036.475 12.231.475c2.082 0 3.953.342 5.61 1.026 1.659.685 2.992 1.71 4.001 3.08 1.01 1.368 1.61 2.857 1.802 4.466.192 1.61.288 4.428.288 8.452v6.69z" fill="#F05A33" mask="url(#b)"/></g><g transform="translate(45.482 .274)"><mask id="d" fill="#fff"><use xlink:href="#c"/></mask><path d="M24.476 18.32H14.36v-6.795c0-1.975-.108-3.209-.325-3.699-.216-.49-.693-.734-1.43-.734-.832 0-1.361.297-1.585.893-.225.596-.337 1.884-.337 3.863v18.16c0 1.9.112 3.14.337 3.72.224.578.729.868 1.513.868.753 0 1.245-.29 1.479-.871.23-.582.348-1.945.348-4.091V24.72h10.116v1.523c0 4.047-.285 6.917-.853 8.609-.57 1.693-1.826 3.177-3.773 4.45-1.945 1.274-4.345 1.91-7.196 1.91-2.964 0-5.406-.539-7.33-1.617-1.922-1.079-3.195-2.572-3.82-4.48-.624-1.908-.936-4.777-.936-8.608V15.085c0-2.818.095-4.93.287-6.339.193-1.408.765-2.766 1.719-4.07.952-1.303 2.274-2.33 3.964-3.078C8.228.85 10.17.475 12.365.475c2.98 0 5.439.579 7.377 1.736 1.938 1.158 3.212 2.601 3.82 4.33.61 1.727.914 4.416.914 8.066v3.713z" fill="#F05A33" mask="url(#d)"/></g><path fill="#F58C1E" d="M96.91 1.57v39.096h-8.866l-5.262-17.773v17.773h-8.458V1.57h8.458l5.67 17.604V1.57zm4.8 0h16.868v7.824h-6.752v7.414h6.32v7.438h-6.32v8.596h7.425v7.824H101.71z"/><g transform="translate(121.535 .274)"><mask id="f" fill="#fff"><use xlink:href="#e"/></mask><path d="M22.795 13.128H13.4v-2.897c0-1.353-.12-2.214-.36-2.584-.24-.37-.641-.556-1.202-.556-.609 0-1.069.25-1.382.75-.312.5-.468 1.256-.468 2.271 0 1.305.176 2.287.526 2.948.336.661 1.29 1.458 2.859 2.39 4.503 2.687 7.34 4.89 8.509 6.613 1.17 1.723 1.754 4.5 1.754 8.331 0 2.786-.324 4.838-.974 6.158-.648 1.32-1.902 2.427-3.76 3.32-1.858.894-4.02 1.34-6.487 1.34-2.708 0-5.018-.514-6.932-1.545-1.915-1.03-3.168-2.342-3.761-3.936-.593-1.594-.889-3.855-.889-6.786v-2.56h9.396v4.758c0 1.465.13 2.407.396 2.826.263.418.732.627 1.405.627s1.174-.265 1.502-.797c.328-.531.492-1.32.492-2.366 0-2.303-.312-3.807-.937-4.516-.64-.708-2.218-1.892-4.733-3.55-2.515-1.674-4.181-2.89-4.998-3.646-.817-.757-1.494-1.803-2.03-3.14C.787 15.245.52 13.54.52 11.462c0-2.994.38-5.184 1.14-6.568.762-1.385 1.991-2.467 3.69-3.247C7.049.866 9.099.475 11.502.475c2.627 0 4.865.427 6.716 1.28 1.85.853 3.075 1.928 3.676 3.224.601 1.296.901 3.497.901 6.604v1.545z" fill="#F58C1E" mask="url(#f)"/></g><g transform="translate(146.886 1.024)"><mask id="h" fill="#fff"><use xlink:href="#g"/></mask><path fill="#F58C1E" mask="url(#h)" d="M22.572.547V8.37h-6.008v31.272H6.448V8.37H.466V.547z"/></g></g></svg>