<?xml version="1.0" encoding="utf-8"?>
<!-- Generator: Adobe Illustrator 16.0.0, SVG Export Plug-In . SVG Version: 6.00 Build 0)  -->
<!DOCTYPE svg PUBLIC "-//W3C//DTD SVG 1.1//EN" "http://www.w3.org/Graphics/SVG/1.1/DTD/svg11.dtd">
<svg version="1.1" xmlns="http://www.w3.org/2000/svg" xmlns:xlink="http://www.w3.org/1999/xlink" x="0px" y="0px"
	 width="207.68px" height="48.091px" viewBox="0 0 207.68 48.091" enable-background="new 0 0 207.68 48.091" xml:space="preserve">
<g id="logo">
	<path class="unibroue-logo" fill="#8C9292" d="M57.19,14.616l-0.673-0.676h-4.07l-0.677,0.676V30.89h-0.102c-0.818-1.433-1.863-2.982-2.969-4.444
		l-7.608-9.675c-1.608-2.104-3.214-3.176-5.507-3.176c-2.294,0-4.091,1.263-4.091,3.521l0.228,0.229
		c0.23-0.114,0.496-0.19,0.766-0.19c0.995,0,1.336,0.765,1.336,1.644v21.468L34.5,40.94h-0.003h4.069h-0.003l0.676-0.675
		l0.003,0.003V24.173h0.104c0.689,1.105,1.428,2.223,2.357,3.381L52.415,40.94h4.104h-0.001l0.673-0.675V14.616z M138.038,41.668
		c-8.758,0-13.502-6.694-13.502-15.032c0-8.182,5.93-13.422,13.883-13.422c8.109,0,13.731,4.629,13.731,13.042
		C152.15,34.784,146.792,41.668,138.038,41.668z M138.344,16.999c-5.622,0-7.455,5.126-7.455,9.869
		c0,4.703,1.718,11.013,7.53,11.013c5.621,0,7.382-6.577,7.382-11.053C145.801,22.239,143.813,16.999,138.344,16.999z
		 M28.567,37.766c-0.229,2.333-1.986,3.48-4.126,3.48c-1.686,0-3.292-0.995-3.866-2.563h-0.039
		c-2.178,1.759-5.084,2.869-7.993,2.869c-6.463,0-10.056-3.826-10.056-11.206V19.064c0-0.918-0.27-2.065-1.378-2.065
		c-0.345,0-0.65,0.116-0.919,0.269L0,17.075c0.229-2.333,1.991-3.48,4.134-3.48c4.549,0,4.549,5.47,4.549,5.47L8.681,30.346
		c0,4.283,2.104,6.541,6.117,6.541c2.066,0,3.979-0.765,5.091-1.837V14.613l0.669-0.673h4.849l0.675,0.676l0.003,21.161
		c0,0.918,0.266,2.065,1.376,2.065c0.346,0,0.652-0.116,0.919-0.267L28.567,37.766z M63.389,14.614l0.675-0.674h4.847l0.675,0.676
		v-0.002v25.651l0,0L68.91,40.94l0,0h-4.85h0.003l-0.675-0.675V14.614z M90.964,26.101v-0.076c2.257-0.917,4.439-3.135,4.439-5.772
		c0-5.089-5.204-6.428-9.791-6.428c-3.018,0-6.104,0.103-9.127,0.237l-0.705,0.704v25.344l0.717,0.718
		c2.574,0.158,5.115,0.228,7.74,0.228c6.535,0,12.427-2.524,12.427-8.646C96.664,29.007,94.216,26.677,90.964,26.101z
		 M81.977,17.421c0.881-0.077,1.646-0.153,2.64-0.153c2.486,0,4.705,1.263,4.705,3.979c0,2.637-2.028,4.283-4.666,4.283
		c-0.878,0-1.76,0-2.679-0.076V17.421z M84.54,37.614c-0.803,0-1.757-0.078-2.563-0.152v-8.645c1.034-0.039,2.182-0.076,3.212-0.076
		c2.717,0,5.13,1.3,5.13,4.245C90.318,36.199,87.447,37.614,84.54,37.614z M115.011,28.395c3.023-1.146,5.658-3.708,5.658-7.265
		c-0.074-6.082-5.965-7.305-10.896-7.305c-2.745,0-5.502,0.1-8.242,0.234l-0.709,0.707v25.499l0.675,0.675l0,0h4.851h-0.001
		l0.673-0.675V29.391c0.765,0,2.449-0.077,2.449-0.077c9.957,27.115,29.186,16.885,29.186,16.885l-0.613-0.612
		C120.974,46.993,115.011,28.395,115.011,28.395z M109.161,26.025c-0.728,0-1.416-0.039-2.143-0.114v-8.453
		c0.689-0.114,1.378-0.19,2.066-0.19c2.906,0,5.241,1.225,5.241,4.398C114.326,24.687,112.03,26.025,109.161,26.025z M207.68,37.23
		c0,3.136-2.945,4.322-6.731,4.322c-8.263,0-15.144-5.354-15.144-14.685c0-9.256,6.922-13.273,14.759-13.273
		c1.955,0,3.852,0.091,5.791,0.348l0.701,0.7l-0.443,2.979l-0.635,0.636c-1.57-0.456-3.221-0.646-4.84-0.646
		c-5.009,0-8.411,2.297-8.984,7.115l0,0h6.308c2.601,0,5.776-0.152,6.5-0.305l0.154,0.227c-0.075,2.947-1.453,4.285-3.748,4.285
		h-9.115c0.581,5.206,4.822,8.643,10.187,8.643c1.606,0,3.594-0.307,4.933-1.224l0.27,0.19
		C207.68,36.771,207.68,37.001,207.68,37.23z M183.653,37.766c-0.232,2.333-1.992,3.48-4.135,3.48c-1.683,0-3.288-0.995-3.86-2.563
		h-0.038c-2.182,1.759-5.088,2.869-7.993,2.869c-6.463,0-10.061-3.826-10.061-11.206V19.064c0-0.918-0.269-2.065-1.378-2.065
		c-0.344,0-0.649,0.116-0.918,0.269l-0.189-0.192c0.229-2.333,1.992-3.48,4.133-3.48c4.549,0,4.549,5.47,4.549,5.47v11.282
		c0,4.283,2.104,6.541,6.119,6.541c2.065,0,3.98-0.765,5.088-1.837V14.613l0.671-0.673h4.85l0.671,0.676l0.003,21.161
		c0,0.918,0.269,2.065,1.376,2.065c0.346,0,0.65-0.116,0.92-0.267L183.653,37.766z M71.134,5.033l-4.262,4.263h-0.773l-4.262-4.262
		V4.258L66.098,0h0.774l4.262,4.261V5.033z"/>
</g>
<g id="safety">
</g>
</svg>
