<?xml version="1.0" encoding="utf-8"?>
<!-- Generator: Adobe Illustrator 16.0.0, SVG Export Plug-In . SVG Version: 6.00 Build 0)  -->
<!DOCTYPE svg PUBLIC "-//W3C//DTD SVG 1.1//EN" "http://www.w3.org/Graphics/SVG/1.1/DTD/svg11.dtd">
<svg version="1.1" id="Layer_1" xmlns="http://www.w3.org/2000/svg" xmlns:xlink="http://www.w3.org/1999/xlink" x="0px" y="0px"
	 width="292px" height="252px" viewBox="0 0 292 252" enable-background="new 0 0 292 252" xml:space="preserve">
<defs>
	<rect id="SVGID_1_" width="292" height="252"/>
</defs>
<clipPath id="SVGID_2_">
	<use xlink:href="#SVGID_1_"  overflow="visible"/>
</clipPath>
<g clip-path="url(#SVGID_2_)">
	<path fill="#D0D2D3" d="M539.286-571.93c-1.594-0.797-2.898,0.009-2.898,1.791v70.889l29.089,14.545
		c3.201,1.6,5.797,0.48,5.797-2.502v-68.264c0-0.286-0.162-0.547-0.417-0.675L539.286-571.93L539.286-571.93z"/>
	<path fill="#A6A8AB" d="M501.504-516.692l33.187-53.928c0.934-1.518,3.002-2.107,4.596-1.31l31.605,15.803
		c0.205,0.103,0.278,0.358,0.158,0.553l-34.662,56.324L501.504-516.692L501.504-516.692z"/>
	<path fill="#808184" d="M471.449-570.964c-2.657-1.328-3.558-0.346-2,2.184l32.055,52.088l34.884,17.442l-34.809-56.565
		c-0.049-0.08-0.12-0.144-0.204-0.186L471.449-570.964L471.449-570.964z"/>
	<g>
		<defs>
			<rect id="SVGID_3_" y="-652.92" width="574.159" height="904.92"/>
		</defs>
		<clipPath id="SVGID_4_">
			<use xlink:href="#SVGID_3_"  overflow="visible"/>
		</clipPath>
		<path clip-path="url(#SVGID_4_)" fill="#59595B" d="M501.504-487.207c0,2.97-2.174,4.313-4.83,2.985l-27.157-13.579
			c-1.594-0.797-2.897-2.907-2.897-4.689v-66.569c0-2.376,1.739-3.451,3.864-2.388l30.833,15.417
			c0.114,0.058,0.188,0.175,0.188,0.303V-487.207L501.504-487.207z"/>
		<path clip-path="url(#SVGID_4_)" fill="#D0D2D3" d="M196.476-652.781c-1.476-0.738-2.683,0.008-2.683,1.659v202.916l88.852,44.426
			c4.427,2.214,8.049-0.025,8.049-4.975v-195.328c0-0.974-0.55-1.863-1.42-2.299L196.476-652.781L196.476-652.781z"/>
		<path clip-path="url(#SVGID_4_)" fill="#A6A8AB" d="M96.901-496.593l95.33-154.91c0.865-1.405,2.78-1.951,4.256-1.213
			l92.084,46.042c1.147,0.573,1.556,2.006,0.884,3.099l-95.652,155.433L96.901-496.593L96.901-496.593z"/>
	</g>
	<path fill="#808184" d="M10.733-648.691c-5.903-2.952-7.903-0.768-4.444,4.854l90.612,147.245l96.901,48.451L97.528-604.589
		c-0.409-0.666-0.997-1.204-1.696-1.553L10.733-648.691L10.733-648.691z"/>
	<path fill="#59595B" d="M96.901-408.691c0,4.95-3.623,7.189-8.05,4.975L5.366-445.459C2.415-446.935,0-450.842,0-454.142v-193.916
		c0-3.3,2.415-4.792,5.366-3.316l90.34,45.17c0.732,0.366,1.195,1.115,1.195,1.934V-408.691L96.901-408.691z"/>
	<path fill="#939393" d="M477.129-456.357v4.785c0,1.811,0.804,2.578,1.883,2.578c1.199,0,1.968-0.791,1.968-2.578v-4.785h1.056
		v4.713c0,2.482-1.309,3.502-3.06,3.502c-1.653,0-2.901-0.947-2.901-3.454v-4.761H477.129L477.129-456.357z"/>
	<path fill="#939393" d="M483.598-449.353c0.313,0.204,0.863,0.419,1.393,0.419c0.767,0,1.127-0.383,1.127-0.863
		c0-0.504-0.3-0.78-1.08-1.068c-1.043-0.371-1.535-0.947-1.535-1.643c0-0.935,0.755-1.702,2.003-1.702
		c0.587,0,1.104,0.167,1.427,0.359l-0.264,0.768c-0.227-0.144-0.646-0.336-1.187-0.336c-0.624,0-0.973,0.36-0.973,0.792
		c0,0.479,0.349,0.695,1.104,0.983c1.007,0.384,1.522,0.888,1.522,1.751c0,1.02-0.792,1.739-2.171,1.739
		c-0.636,0-1.223-0.156-1.631-0.396L483.598-449.353L483.598-449.353z"/>
	<path fill="#939393" d="M492.176-451.74c0.013-0.672-0.275-1.715-1.464-1.715c-1.067,0-1.535,0.983-1.619,1.715H492.176
		L492.176-451.74z M489.081-450.984c0.025,1.427,0.936,2.014,1.992,2.014c0.755,0,1.211-0.131,1.605-0.299l0.182,0.755
		c-0.372,0.168-1.009,0.36-1.933,0.36c-1.787,0-2.854-1.176-2.854-2.926c0-1.751,1.032-3.13,2.722-3.13c1.896,0,2.4,1.667,2.4,2.734
		c0,0.216-0.025,0.384-0.036,0.492H489.081L489.081-450.984z"/>
	<path fill="#939393" d="M497.158-448.274v-5.001h-0.816v-0.804h0.816v-0.275c0-0.816,0.179-1.559,0.671-2.027
		c0.396-0.384,0.923-0.54,1.416-0.54c0.371,0,0.695,0.084,0.898,0.168l-0.145,0.816c-0.155-0.073-0.371-0.133-0.671-0.133
		c-0.899,0-1.127,0.792-1.127,1.679v0.312h1.403v0.804h-1.403v5.001H497.158L497.158-448.274z"/>
	<path fill="#939393" d="M501.045-451.164c0,1.271,0.732,2.23,1.763,2.23c1.009,0,1.765-0.947,1.765-2.254
		c0-0.984-0.493-2.231-1.74-2.231S501.045-452.267,501.045-451.164L501.045-451.164z M505.651-451.224
		c0,2.146-1.488,3.082-2.892,3.082c-1.57,0-2.782-1.151-2.782-2.986c0-1.943,1.271-3.082,2.879-3.082
		C504.524-454.21,505.651-452.999,505.651-451.224L505.651-451.224z"/>
	<path fill="#939393" d="M506.986-452.267c0-0.684-0.014-1.272-0.049-1.812h0.924l0.036,1.14h0.048
		c0.263-0.78,0.898-1.271,1.606-1.271c0.12,0,0.204,0.011,0.3,0.035v0.996c-0.107-0.024-0.216-0.036-0.358-0.036
		c-0.745,0-1.272,0.564-1.416,1.355c-0.024,0.144-0.048,0.312-0.048,0.492v3.094h-1.043V-452.267L506.986-452.267z"/>
	<path fill="#939393" d="M513.309-449.353c0.313,0.204,0.864,0.419,1.393,0.419c0.767,0,1.127-0.383,1.127-0.863
		c0-0.504-0.3-0.78-1.08-1.068c-1.042-0.371-1.535-0.947-1.535-1.643c0-0.935,0.756-1.702,2.003-1.702
		c0.588,0,1.104,0.167,1.428,0.359l-0.265,0.768c-0.227-0.144-0.646-0.336-1.186-0.336c-0.624,0-0.973,0.36-0.973,0.792
		c0,0.479,0.349,0.695,1.104,0.983c1.006,0.384,1.521,0.888,1.521,1.751c0,1.02-0.791,1.739-2.171,1.739
		c-0.635,0-1.223-0.156-1.631-0.396L513.309-449.353L513.309-449.353z"/>
	<path fill="#939393" d="M518.206-452.508c0-0.599-0.013-1.091-0.048-1.571h0.923l0.047,0.936h0.036
		c0.325-0.552,0.865-1.067,1.824-1.067c0.792,0,1.391,0.479,1.643,1.163h0.024c0.179-0.324,0.408-0.576,0.646-0.756
		c0.349-0.264,0.732-0.407,1.283-0.407c0.769,0,1.908,0.503,1.908,2.518v3.418h-1.032v-3.286c0-1.115-0.408-1.787-1.259-1.787
		c-0.601,0-1.068,0.444-1.248,0.959c-0.047,0.144-0.084,0.336-0.084,0.528v3.586h-1.031v-3.478c0-0.923-0.408-1.595-1.211-1.595
		c-0.66,0-1.139,0.528-1.307,1.056c-0.061,0.155-0.084,0.335-0.084,0.515v3.502h-1.031V-452.508L518.206-452.508z"/>
	<path fill="#939393" d="M531.272-451.236c-1.152-0.024-2.459,0.18-2.459,1.307c0,0.683,0.455,1.008,0.995,1.008
		c0.756,0,1.235-0.48,1.403-0.972c0.035-0.108,0.061-0.228,0.061-0.336V-451.236L531.272-451.236z M531.428-448.274l-0.084-0.731
		h-0.036c-0.323,0.455-0.946,0.863-1.774,0.863c-1.175,0-1.775-0.828-1.775-1.667c0-1.403,1.247-2.171,3.489-2.159v-0.12
		c0-0.479-0.131-1.343-1.319-1.343c-0.539,0-1.102,0.168-1.511,0.432l-0.24-0.696c0.481-0.312,1.177-0.515,1.907-0.515
		c1.776,0,2.207,1.211,2.207,2.374v2.171c0,0.503,0.024,0.995,0.096,1.391H531.428L531.428-448.274z"/>
	<polygon fill="#939393" points="533.997,-456.789 535.053,-456.789 535.053,-448.274 533.997,-448.274 533.997,-456.789 	"/>
	<polygon fill="#939393" points="536.829,-456.789 537.885,-456.789 537.885,-448.274 536.829,-448.274 536.829,-456.789 	"/>
	<path fill="#939393" d="M543.343-451.74c0.013-0.672-0.274-1.715-1.463-1.715c-1.066,0-1.535,0.983-1.619,1.715H543.343
		L543.343-451.74z M540.249-450.984c0.024,1.427,0.935,2.014,1.991,2.014c0.755,0,1.212-0.131,1.606-0.299l0.181,0.755
		c-0.372,0.168-1.007,0.36-1.932,0.36c-1.787,0-2.854-1.176-2.854-2.926c0-1.751,1.031-3.13,2.722-3.13
		c1.896,0,2.399,1.667,2.399,2.734c0,0.216-0.025,0.384-0.036,0.492H540.249L540.249-450.984z"/>
	<path fill="#939393" d="M545.673-452.267c0-0.684-0.012-1.272-0.048-1.812h0.923l0.036,1.14h0.048
		c0.265-0.78,0.9-1.271,1.608-1.271c0.12,0,0.204,0.011,0.299,0.035v0.996c-0.108-0.024-0.215-0.036-0.359-0.036
		c-0.744,0-1.271,0.564-1.416,1.355c-0.022,0.144-0.048,0.312-0.048,0.492v3.094h-1.043V-452.267L545.673-452.267z"/>
	<path fill="#939393" d="M551.996-449.353c0.313,0.204,0.865,0.419,1.392,0.419c0.769,0,1.127-0.383,1.127-0.863
		c0-0.504-0.3-0.78-1.079-1.068c-1.043-0.371-1.534-0.947-1.534-1.643c0-0.935,0.756-1.702,2.003-1.702
		c0.588,0,1.103,0.167,1.427,0.359l-0.264,0.768c-0.229-0.144-0.648-0.336-1.188-0.336c-0.624,0-0.971,0.36-0.971,0.792
		c0,0.479,0.347,0.695,1.103,0.983c1.007,0.384,1.523,0.888,1.523,1.751c0,1.02-0.791,1.739-2.171,1.739
		c-0.635,0-1.224-0.156-1.631-0.396L551.996-449.353L551.996-449.353z"/>
	<path fill="#939393" d="M556.893-448.274v-5.805h1.057v5.805H556.893L556.893-448.274z M558.068-455.71
		c0.013,0.36-0.252,0.648-0.671,0.648c-0.372,0-0.637-0.288-0.637-0.648c0-0.371,0.275-0.66,0.659-0.66
		C557.816-456.37,558.068-456.081,558.068-455.71L558.068-455.71z"/>
	<path fill="#939393" d="M559.041-448.886l2.626-3.418c0.252-0.312,0.493-0.588,0.756-0.899v-0.024h-3.142v-0.852h4.425l-0.011,0.66
		l-2.591,3.37c-0.239,0.324-0.48,0.612-0.743,0.912v0.024h3.393v0.839h-4.713V-448.886L559.041-448.886z"/>
	<path fill="#939393" d="M568.435-451.74c0.013-0.672-0.274-1.715-1.463-1.715c-1.066,0-1.534,0.983-1.618,1.715H568.435
		L568.435-451.74z M565.341-450.984c0.024,1.427,0.936,2.014,1.99,2.014c0.756,0,1.212-0.131,1.608-0.299l0.18,0.755
		c-0.373,0.168-1.007,0.36-1.931,0.36c-1.787,0-2.855-1.176-2.855-2.926c0-1.751,1.032-3.13,2.723-3.13
		c1.896,0,2.398,1.667,2.398,2.734c0,0.216-0.024,0.384-0.036,0.492H565.341L565.341-450.984z"/>
	<path fill="#939393" d="M570.62-449.353c0.313,0.204,0.865,0.419,1.392,0.419c0.769,0,1.127-0.383,1.127-0.863
		c0-0.504-0.3-0.78-1.079-1.068c-1.043-0.371-1.534-0.947-1.534-1.643c0-0.935,0.756-1.702,2.003-1.702
		c0.588,0,1.103,0.167,1.428,0.359l-0.265,0.768c-0.229-0.144-0.648-0.336-1.188-0.336c-0.624,0-0.971,0.36-0.971,0.792
		c0,0.479,0.347,0.695,1.103,0.983c1.007,0.384,1.523,0.888,1.523,1.751c0,1.02-0.791,1.739-2.171,1.739
		c-0.635,0-1.224-0.156-1.631-0.396L570.62-449.353L570.62-449.353z"/>
	<path fill="#939393" d="M477.129,197.643v4.785c0,1.811,0.804,2.579,1.883,2.579c1.199,0,1.968-0.792,1.968-2.579v-4.785h1.056
		v4.713c0,2.482-1.309,3.502-3.06,3.502c-1.653,0-2.901-0.947-2.901-3.454v-4.761H477.129L477.129,197.643z"/>
	<path fill="#939393" d="M483.598,204.647c0.313,0.204,0.863,0.42,1.393,0.42c0.767,0,1.127-0.384,1.127-0.864
		c0-0.504-0.3-0.779-1.08-1.068c-1.043-0.371-1.535-0.947-1.535-1.643c0-0.935,0.755-1.702,2.003-1.702
		c0.587,0,1.104,0.167,1.427,0.359l-0.264,0.768c-0.227-0.144-0.646-0.336-1.187-0.336c-0.624,0-0.973,0.36-0.973,0.792
		c0,0.479,0.349,0.695,1.104,0.983c1.007,0.384,1.522,0.888,1.522,1.751c0,1.02-0.792,1.739-2.171,1.739
		c-0.636,0-1.223-0.156-1.631-0.396L483.598,204.647L483.598,204.647z"/>
	<path fill="#939393" d="M492.176,202.26c0.013-0.672-0.275-1.715-1.464-1.715c-1.067,0-1.535,0.983-1.619,1.715H492.176
		L492.176,202.26z M489.081,203.016c0.025,1.427,0.936,2.014,1.992,2.014c0.755,0,1.211-0.131,1.605-0.299l0.182,0.755
		c-0.372,0.168-1.009,0.36-1.933,0.36c-1.787,0-2.854-1.175-2.854-2.926s1.032-3.13,2.722-3.13c1.896,0,2.4,1.667,2.4,2.734
		c0,0.216-0.025,0.384-0.036,0.492H489.081L489.081,203.016z"/>
	<path fill="#939393" d="M497.158,205.726v-5.001h-0.816v-0.804h0.816v-0.275c0-0.816,0.179-1.559,0.671-2.027
		c0.396-0.384,0.923-0.54,1.416-0.54c0.371,0,0.695,0.084,0.898,0.168l-0.145,0.816c-0.155-0.073-0.371-0.133-0.671-0.133
		c-0.899,0-1.127,0.792-1.127,1.679v0.312h1.403v0.804h-1.403v5.001H497.158L497.158,205.726z"/>
	<path fill="#939393" d="M501.045,202.836c0,1.271,0.732,2.231,1.763,2.231c1.009,0,1.765-0.948,1.765-2.255
		c0-0.984-0.493-2.231-1.74-2.231S501.045,201.733,501.045,202.836L501.045,202.836z M505.651,202.776
		c0,2.146-1.488,3.082-2.892,3.082c-1.57,0-2.782-1.151-2.782-2.986c0-1.943,1.271-3.082,2.879-3.082
		C504.524,199.79,505.651,201.001,505.651,202.776L505.651,202.776z"/>
	<path fill="#939393" d="M506.986,201.733c0-0.684-0.014-1.272-0.049-1.812h0.924l0.036,1.14h0.048
		c0.263-0.78,0.898-1.271,1.606-1.271c0.12,0,0.204,0.011,0.3,0.035v0.996c-0.107-0.024-0.216-0.036-0.358-0.036
		c-0.745,0-1.272,0.564-1.416,1.355c-0.024,0.144-0.048,0.312-0.048,0.492v3.094h-1.043V201.733L506.986,201.733z"/>
	<path fill="#939393" d="M513.309,204.647c0.313,0.204,0.864,0.42,1.393,0.42c0.767,0,1.127-0.384,1.127-0.864
		c0-0.504-0.3-0.779-1.08-1.068c-1.042-0.371-1.535-0.947-1.535-1.643c0-0.935,0.756-1.702,2.003-1.702
		c0.588,0,1.104,0.167,1.428,0.359l-0.265,0.768c-0.227-0.144-0.646-0.336-1.186-0.336c-0.624,0-0.973,0.36-0.973,0.792
		c0,0.479,0.349,0.695,1.104,0.983c1.006,0.384,1.521,0.888,1.521,1.751c0,1.02-0.791,1.739-2.171,1.739
		c-0.635,0-1.223-0.156-1.631-0.396L513.309,204.647L513.309,204.647z"/>
	<path fill="#939393" d="M518.206,201.492c0-0.599-0.013-1.091-0.048-1.571h0.923l0.047,0.936h0.036
		c0.325-0.552,0.865-1.067,1.824-1.067c0.792,0,1.391,0.479,1.643,1.163h0.024c0.179-0.324,0.408-0.576,0.646-0.756
		c0.349-0.264,0.732-0.407,1.283-0.407c0.769,0,1.908,0.503,1.908,2.518v3.418h-1.032v-3.286c0-1.115-0.408-1.787-1.259-1.787
		c-0.601,0-1.068,0.444-1.248,0.959c-0.047,0.145-0.084,0.336-0.084,0.528v3.586h-1.031v-3.478c0-0.923-0.408-1.595-1.211-1.595
		c-0.66,0-1.139,0.528-1.307,1.056c-0.061,0.155-0.084,0.335-0.084,0.515v3.502h-1.031V201.492L518.206,201.492z"/>
	<path fill="#939393" d="M531.272,202.764c-1.152-0.024-2.459,0.18-2.459,1.307c0,0.683,0.455,1.008,0.995,1.008
		c0.756,0,1.235-0.48,1.403-0.972c0.035-0.108,0.061-0.228,0.061-0.336V202.764L531.272,202.764z M531.428,205.726l-0.084-0.731
		h-0.036c-0.323,0.455-0.946,0.863-1.774,0.863c-1.175,0-1.775-0.828-1.775-1.667c0-1.403,1.247-2.171,3.489-2.159v-0.12
		c0-0.479-0.131-1.343-1.319-1.343c-0.539,0-1.102,0.167-1.511,0.432l-0.24-0.696c0.481-0.312,1.177-0.515,1.907-0.515
		c1.776,0,2.207,1.211,2.207,2.374v2.171c0,0.503,0.024,0.995,0.096,1.391H531.428L531.428,205.726z"/>
	<polygon fill="#939393" points="533.997,197.211 535.053,197.211 535.053,205.726 533.997,205.726 533.997,197.211 	"/>
	<polygon fill="#939393" points="536.829,197.211 537.885,197.211 537.885,205.726 536.829,205.726 536.829,197.211 	"/>
	<path fill="#939393" d="M543.343,202.26c0.013-0.672-0.274-1.715-1.463-1.715c-1.066,0-1.535,0.983-1.619,1.715H543.343
		L543.343,202.26z M540.249,203.016c0.024,1.427,0.935,2.014,1.991,2.014c0.755,0,1.212-0.131,1.606-0.299l0.181,0.755
		c-0.372,0.168-1.007,0.36-1.932,0.36c-1.787,0-2.854-1.175-2.854-2.926s1.031-3.13,2.722-3.13c1.896,0,2.399,1.667,2.399,2.734
		c0,0.216-0.025,0.384-0.036,0.492H540.249L540.249,203.016z"/>
	<path fill="#939393" d="M545.673,201.733c0-0.684-0.012-1.272-0.048-1.812h0.923l0.036,1.14h0.048
		c0.265-0.78,0.9-1.271,1.608-1.271c0.12,0,0.204,0.011,0.299,0.035v0.996c-0.108-0.024-0.215-0.036-0.359-0.036
		c-0.744,0-1.271,0.564-1.416,1.355c-0.022,0.144-0.048,0.312-0.048,0.492v3.094h-1.043V201.733L545.673,201.733z"/>
	<path fill="#939393" d="M551.996,204.647c0.313,0.204,0.865,0.42,1.392,0.42c0.769,0,1.127-0.384,1.127-0.864
		c0-0.504-0.3-0.779-1.079-1.068c-1.043-0.371-1.534-0.947-1.534-1.643c0-0.935,0.756-1.702,2.003-1.702
		c0.588,0,1.103,0.167,1.427,0.359l-0.264,0.768c-0.229-0.144-0.648-0.336-1.188-0.336c-0.624,0-0.971,0.36-0.971,0.792
		c0,0.479,0.347,0.695,1.103,0.983c1.007,0.384,1.523,0.888,1.523,1.751c0,1.02-0.791,1.739-2.171,1.739
		c-0.635,0-1.224-0.156-1.631-0.396L551.996,204.647L551.996,204.647z"/>
	<path fill="#939393" d="M556.893,205.726v-5.805h1.057v5.805H556.893L556.893,205.726z M558.068,198.29
		c0.013,0.36-0.252,0.648-0.671,0.648c-0.372,0-0.637-0.288-0.637-0.648c0-0.371,0.275-0.66,0.659-0.66
		C557.816,197.63,558.068,197.919,558.068,198.29L558.068,198.29z"/>
	<path fill="#939393" d="M559.041,205.114l2.626-3.418c0.252-0.312,0.493-0.588,0.756-0.899v-0.024h-3.142v-0.852h4.425l-0.011,0.66
		l-2.591,3.37c-0.239,0.324-0.48,0.612-0.743,0.912v0.024h3.393v0.839h-4.713V205.114L559.041,205.114z"/>
	<path fill="#939393" d="M568.435,202.26c0.013-0.672-0.274-1.715-1.463-1.715c-1.066,0-1.534,0.983-1.618,1.715H568.435
		L568.435,202.26z M565.341,203.016c0.024,1.427,0.936,2.014,1.99,2.014c0.756,0,1.212-0.131,1.608-0.299l0.18,0.755
		c-0.373,0.168-1.007,0.36-1.931,0.36c-1.787,0-2.855-1.175-2.855-2.926s1.032-3.13,2.723-3.13c1.896,0,2.398,1.667,2.398,2.734
		c0,0.216-0.024,0.384-0.036,0.492H565.341L565.341,203.016z"/>
	<path fill="#939393" d="M570.62,204.647c0.313,0.204,0.865,0.42,1.392,0.42c0.769,0,1.127-0.384,1.127-0.864
		c0-0.504-0.3-0.779-1.079-1.068c-1.043-0.371-1.534-0.947-1.534-1.643c0-0.935,0.756-1.702,2.003-1.702
		c0.588,0,1.103,0.167,1.428,0.359l-0.265,0.768c-0.229-0.144-0.648-0.336-1.188-0.336c-0.624,0-0.971,0.36-0.971,0.792
		c0,0.479,0.347,0.695,1.103,0.983c1.007,0.384,1.523,0.888,1.523,1.751c0,1.02-0.791,1.739-2.171,1.739
		c-0.635,0-1.224-0.156-1.631-0.396L570.62,204.647L570.62,204.647z"/>
	<path fill="#4792dc" d="M288.575,48.703L196.723,2.777c-0.417-0.209-0.871-0.306-1.325-0.318c-0.03-0.001-0.059-0.01-0.089-0.01
		c-1.117,0-2.229,0.561-2.831,1.538l-56.614,91.999l63.198,102.698l90.394-146.89C290.126,50.704,289.719,49.275,288.575,48.703
		L288.575,48.703z"/>
	<g>
		<defs>
			<rect id="SVGID_5_" y="-652.92" width="574.159" height="904.92"/>
		</defs>
		<clipPath id="SVGID_6_">
			<use xlink:href="#SVGID_5_"  overflow="visible"/>
		</clipPath>
		<polygon clip-path="url(#SVGID_6_)" fill="#4792dc" points="105.933,63.649 105.933,162.777 194.047,206.834 105.933,63.649 		"/>
		<path clip-path="url(#SVGID_6_)" fill="#4792dc" d="M201.745,210.625l80.919,40.458c4.416,2.208,8.029-0.025,8.029-4.964V66.084
			L201.745,210.625L201.745,210.625z"/>
	</g>
	<path fill="#4792dc" d="M96.198,49.171L11.439,6.791L6.086,4.115c-0.771-0.386-1.506-0.568-2.17-0.568
		c-0.945,0-1.746,0.372-2.308,1.051C1.057,5.262,0.733,6.222,0.733,7.423v193.426c0,3.292,2.409,7.188,5.353,8.661l83.274,41.636
		c1.157,0.579,2.259,0.854,3.256,0.854c2.806,0,4.774-2.171,4.774-5.815V51.099C97.39,50.283,96.929,49.536,96.198,49.171
		L96.198,49.171z"/>
	<path fill="#4792dc" d="M571.839,98.327c-0.02-0.016-0.036-0.037-0.061-0.049l-0.036-0.018l-31.57-15.785
		c-0.213-0.107-0.437-0.179-0.664-0.237c-0.285-0.073-0.576-0.118-0.868-0.118c-1.209,0-2.411,0.607-3.063,1.665l-18.175,29.536
		l22.809,37.064l31.726-51.554C572.041,98.659,571.991,98.447,571.839,98.327L571.839,98.327z"/>
	<polygon fill="#4792dc" points="507.39,106.593 507.39,140.214 537.274,155.156 507.39,106.593 	"/>
	<path fill="#4792dc" d="M541.764,157.401l24.6,12.299c3.201,1.601,5.796,0.48,5.796-2.502v-59.189L541.764,157.401L541.764,157.401
		z"/>
	<path fill="#4792dc" d="M502.202,98.375l-30.833-15.417c-0.557-0.278-1.087-0.41-1.567-0.41c-1.35,0-2.297,1.045-2.297,2.798v66.57
		c0,1.782,1.304,3.892,2.898,4.689l27.156,13.578c0.696,0.348,1.359,0.513,1.958,0.513c1.688,0,2.872-1.306,2.872-3.498v-68.52
		C502.39,98.55,502.317,98.432,502.202,98.375L502.202,98.375z"/>
</g>
<polyline clip-path="url(#SVGID_2_)" fill="none" points="533,184 533,-721 -41,-721 -41,184 "/>
<polyline clip-path="url(#SVGID_2_)" fill="none" points="-90,269 -90,-115 305,-115 "/>
</svg>
